<?xml version="1.0" encoding="utf-8"?>
<!-- Generator: Adobe Illustrator 27.0.0, SVG Export Plug-In . SVG Version: 6.00 Build 0)  -->
<svg version="1.1" id="Layer_1" xmlns="http://www.w3.org/2000/svg" xmlns:xlink="http://www.w3.org/1999/xlink" x="0px" y="0px"
	 viewBox="0 0 250 80" enable-background="new 0 0 250 80" xml:space="preserve">
<path fill="#FFFFFF" d="M42.309,19.666v51.956c2.559-1.22,4.958-2.491,7.141-3.816V46.039h5.328v18.048
	c4.412-3.61,7.103-7.592,7.141-12.008V26.992h5.32c10.017,0,11.369-10.739,6.05-14.516c0.474,1.802,0.83,7.136-4.581,7.136
	l-13.929,0.028v19.258H49.45V19.652L42.309,19.666z"/>
<path fill="#FFFFFF" d="M41.075,59.196v12.426c-7.661-3.651-13.891-7.76-17.147-12.426H41.075z M33.935,19.666h7.141v35.96
	c-6.332,0-12.663,0-18.995,0c-0.392-1.15-0.604-2.332-0.614-3.547V26.992h-5.32c-10.017,0-11.369-10.739-6.05-14.516
	c-0.474,1.802-0.83,7.136,4.581,7.136l13.929,0.035c0,9.613,0,19.225,0,28.838h5.328C33.935,38.879,33.935,29.273,33.935,19.666z"/>
<g>
	<path fill="#FFFFFF" d="M108.784,39.706c0,0.334-0.06,0.645-0.179,0.931s-0.286,0.535-0.5,0.743
		c-0.215,0.209-0.465,0.373-0.751,0.492s-0.59,0.179-0.912,0.179H95.958c-0.99,0-1.991-0.107-3.005-0.322
		c-1.014-0.214-1.994-0.545-2.942-0.993c-0.948-0.447-1.839-1.017-2.674-1.708c-0.835-0.691-1.565-1.511-2.191-2.459
		c-0.626-0.948-1.118-2.033-1.476-3.255c-0.358-1.222-0.537-2.584-0.537-4.087V16.4h4.65v12.825c0,1.312,0.182,2.421,0.546,3.327
		c0.363,0.907,0.826,1.664,1.386,2.272c0.56,0.608,1.174,1.085,1.842,1.431c0.667,0.346,1.303,0.603,1.905,0.769
		c0.602,0.167,1.133,0.271,1.592,0.313c0.459,0.042,0.76,0.063,0.903,0.063h8.174V16.4h4.651V39.706z"/>
	<path fill="#FFFFFF" d="M134.773,35.521c0,0.799-0.102,1.518-0.305,2.155c-0.202,0.638-0.471,1.199-0.805,1.682
		s-0.722,0.894-1.162,1.234c-0.441,0.34-0.903,0.618-1.387,0.833s-0.972,0.373-1.467,0.474c-0.495,0.102-0.963,0.152-1.404,0.152
		h-8.389c-0.799,0-1.515-0.102-2.146-0.304c-0.632-0.203-1.189-0.475-1.672-0.815c-0.483-0.34-0.895-0.73-1.234-1.171
		c-0.34-0.441-0.617-0.904-0.832-1.387c-0.215-0.483-0.373-0.972-0.474-1.467c-0.102-0.495-0.152-0.957-0.152-1.386v-6.296
		c0-1.192,0.217-2.203,0.653-3.032c0.435-0.829,0.978-1.502,1.627-2.021c0.65-0.519,1.356-0.891,2.12-1.118s1.467-0.34,2.111-0.34
		h8.389v4.65h-8.353c-0.62,0-1.091,0.158-1.413,0.474s-0.483,0.778-0.483,1.386v6.26c0,0.632,0.158,1.109,0.474,1.431
		c0.315,0.322,0.778,0.483,1.386,0.483h8.389c0.632,0,1.104-0.161,1.413-0.483c0.311-0.322,0.465-0.787,0.465-1.396V14.54h4.651
		V35.521z"/>
	<path fill="#FFFFFF" d="M159.171,35.646c0,0.644-0.113,1.338-0.34,2.083c-0.227,0.746-0.593,1.438-1.1,2.076
		c-0.507,0.638-1.169,1.171-1.985,1.601c-0.817,0.429-1.81,0.644-2.979,0.644h-8.389c-0.644,0-1.339-0.113-2.084-0.34
		s-1.437-0.593-2.075-1.1c-0.638-0.507-1.171-1.169-1.601-1.986c-0.429-0.817-0.644-1.81-0.644-2.978
		c0-0.644,0.113-1.342,0.34-2.093c0.227-0.751,0.593-1.446,1.1-2.084c0.507-0.638,1.169-1.171,1.985-1.601
		c0.817-0.43,1.81-0.644,2.979-0.644h8.389v4.436h-8.389c-0.632,0-1.121,0.194-1.467,0.581c-0.346,0.388-0.519,0.868-0.519,1.44
		c0,0.608,0.199,1.082,0.599,1.422s0.874,0.51,1.423,0.51h8.353c0.632,0,1.121-0.19,1.467-0.572
		c0.346-0.381,0.519-0.858,0.519-1.431v-6.493c0-0.608-0.188-1.091-0.563-1.449c-0.375-0.358-0.85-0.537-1.422-0.537h-10.213v-4.418
		h10.213c0.645,0,1.339,0.113,2.084,0.34s1.437,0.593,2.075,1.1c0.638,0.507,1.171,1.168,1.601,1.985s0.644,1.81,0.644,2.978V35.646
		z"/>
	<path fill="#FFFFFF" d="M167.864,18.743h-4.65V14.54h4.65V18.743z M167.864,42.05h-4.65V22.714h4.65V42.05z"/>
	<path fill="#FFFFFF" d="M193.639,35.521c0,0.799-0.102,1.518-0.304,2.155c-0.203,0.638-0.472,1.199-0.805,1.682
		c-0.334,0.483-0.722,0.894-1.163,1.234s-0.903,0.618-1.386,0.833c-0.483,0.215-0.97,0.373-1.458,0.474
		c-0.489,0.102-0.954,0.152-1.396,0.152h-8.389v-4.651h8.389c0.62,0,1.085-0.161,1.396-0.483c0.31-0.322,0.465-0.787,0.465-1.396
		v-6.26c0-0.644-0.158-1.121-0.474-1.431c-0.316-0.31-0.778-0.465-1.387-0.465h-8.353c-0.633,0-1.109,0.158-1.432,0.474
		c-0.321,0.316-0.482,0.778-0.482,1.386v18.871h-4.65V29.225c0-0.799,0.101-1.514,0.304-2.146c0.203-0.632,0.474-1.189,0.813-1.672
		s0.73-0.895,1.172-1.234s0.903-0.617,1.387-0.832c0.482-0.215,0.972-0.373,1.467-0.474c0.494-0.101,0.956-0.152,1.386-0.152h8.389
		c0.799,0,1.515,0.101,2.146,0.304c0.632,0.203,1.189,0.471,1.673,0.805c0.482,0.334,0.895,0.722,1.234,1.163
		c0.34,0.441,0.616,0.903,0.831,1.386s0.373,0.969,0.475,1.458c0.101,0.489,0.151,0.955,0.151,1.396V35.521z"/>
	<path fill="#FFFFFF" d="M218.752,39.706c0,0.334-0.06,0.645-0.179,0.931s-0.283,0.535-0.492,0.743
		c-0.208,0.209-0.453,0.373-0.733,0.492s-0.581,0.179-0.903,0.179h-10.517c-0.573,0-1.184-0.065-1.834-0.196
		c-0.65-0.132-1.291-0.343-1.923-0.636c-0.632-0.292-1.243-0.662-1.833-1.109c-0.591-0.447-1.106-0.99-1.548-1.628
		c-0.44-0.638-0.796-1.374-1.063-2.209c-0.269-0.834-0.402-1.777-0.402-2.826V22.714h4.65v10.732c0,0.608,0.104,1.154,0.312,1.637
		s0.492,0.897,0.85,1.243c0.358,0.346,0.778,0.611,1.262,0.796c0.482,0.185,1.004,0.277,1.564,0.277h8.139V22.714h4.65V39.706z"/>
	<path fill="#FFFFFF" d="M240.038,27.364h-10.464c-0.633,0-1.109,0.158-1.432,0.474c-0.321,0.316-0.482,0.778-0.482,1.386V42.05
		h-4.65V29.225c0-0.799,0.101-1.514,0.304-2.146c0.203-0.632,0.474-1.189,0.813-1.672s0.73-0.895,1.172-1.234
		s0.903-0.617,1.387-0.832c0.482-0.215,0.972-0.373,1.467-0.474c0.494-0.101,0.956-0.152,1.386-0.152h10.5V27.364z"/>
</g>
<g>
	<path fill="#FFFFFF" d="M142.493,62.928c0,0.042-0.011,0.078-0.031,0.109c-0.021,0.031-0.058,0.056-0.109,0.074
		c-0.053,0.019-0.121,0.034-0.207,0.047s-0.191,0.02-0.316,0.02c-0.136,0-0.245-0.007-0.328-0.02
		c-0.084-0.013-0.151-0.028-0.203-0.047c-0.053-0.019-0.089-0.043-0.109-0.074c-0.021-0.031-0.031-0.067-0.031-0.109v-4.484h-4.602
		v4.484c0,0.042-0.011,0.078-0.031,0.109c-0.021,0.031-0.058,0.056-0.109,0.074c-0.053,0.019-0.121,0.034-0.207,0.047
		s-0.194,0.02-0.324,0.02c-0.125,0-0.232-0.007-0.32-0.02c-0.089-0.013-0.159-0.028-0.211-0.047
		c-0.053-0.019-0.089-0.043-0.109-0.074c-0.021-0.031-0.031-0.067-0.031-0.109v-9.703c0-0.042,0.01-0.078,0.031-0.109
		c0.021-0.031,0.057-0.056,0.109-0.074c0.052-0.019,0.122-0.034,0.211-0.047c0.088-0.013,0.195-0.02,0.32-0.02
		c0.13,0,0.238,0.007,0.324,0.02s0.154,0.028,0.207,0.047c0.052,0.019,0.088,0.043,0.109,0.074c0.021,0.031,0.031,0.067,0.031,0.109
		v4.047h4.602v-4.047c0-0.042,0.01-0.078,0.031-0.109c0.021-0.031,0.057-0.056,0.109-0.074c0.052-0.019,0.119-0.034,0.203-0.047
		c0.083-0.013,0.192-0.02,0.328-0.02c0.125,0,0.23,0.007,0.316,0.02s0.154,0.028,0.207,0.047c0.052,0.019,0.088,0.043,0.109,0.074
		c0.021,0.031,0.031,0.067,0.031,0.109V62.928z"/>
	<path fill="#FFFFFF" d="M153.649,57.959c0,0.817-0.097,1.555-0.289,2.211c-0.193,0.656-0.48,1.215-0.863,1.676
		s-0.863,0.815-1.441,1.062s-1.253,0.371-2.023,0.371c-0.761,0-1.418-0.113-1.973-0.34s-1.014-0.556-1.375-0.988
		c-0.362-0.433-0.632-0.969-0.809-1.609c-0.178-0.641-0.266-1.378-0.266-2.211c0-0.797,0.096-1.521,0.289-2.172
		c0.192-0.651,0.481-1.204,0.867-1.66c0.385-0.456,0.867-0.808,1.445-1.055s1.252-0.371,2.023-0.371
		c0.744,0,1.393,0.112,1.945,0.336c0.552,0.224,1.012,0.551,1.379,0.98s0.641,0.961,0.82,1.594S153.649,57.142,153.649,57.959z
		 M152.228,58.053c0-0.573-0.051-1.105-0.152-1.598s-0.271-0.919-0.507-1.281c-0.237-0.362-0.553-0.645-0.948-0.848
		s-0.885-0.305-1.467-0.305c-0.583,0-1.072,0.109-1.467,0.328c-0.396,0.219-0.717,0.511-0.964,0.875s-0.424,0.79-0.53,1.277
		c-0.107,0.487-0.16,0.999-0.16,1.535c0,0.594,0.049,1.141,0.148,1.641c0.099,0.5,0.265,0.931,0.499,1.293s0.548,0.644,0.94,0.844
		s0.886,0.301,1.479,0.301c0.588,0,1.082-0.109,1.482-0.328s0.723-0.515,0.968-0.887c0.244-0.372,0.418-0.804,0.522-1.293
		C152.175,59.118,152.228,58.6,152.228,58.053z"/>
	<path fill="#FFFFFF" d="M161.017,62.545c0,0.104-0.006,0.191-0.016,0.262c-0.011,0.07-0.027,0.13-0.051,0.18
		s-0.053,0.086-0.086,0.109c-0.034,0.023-0.074,0.035-0.121,0.035h-4.469c-0.12,0-0.233-0.04-0.34-0.121
		c-0.107-0.081-0.16-0.223-0.16-0.426v-9.359c0-0.042,0.01-0.078,0.031-0.109c0.021-0.031,0.057-0.056,0.109-0.074
		c0.052-0.019,0.122-0.034,0.211-0.047c0.088-0.013,0.195-0.02,0.32-0.02c0.13,0,0.238,0.007,0.324,0.02s0.154,0.028,0.207,0.047
		c0.052,0.019,0.088,0.043,0.109,0.074c0.021,0.031,0.031,0.067,0.031,0.109v8.742h3.625c0.047,0,0.087,0.012,0.121,0.035
		c0.033,0.023,0.062,0.058,0.086,0.102s0.04,0.103,0.051,0.176C161.011,62.353,161.017,62.44,161.017,62.545z"/>
	<path fill="#FFFFFF" d="M163.845,62.928c0,0.042-0.011,0.078-0.031,0.109s-0.058,0.056-0.109,0.074s-0.121,0.034-0.207,0.047
		s-0.194,0.02-0.324,0.02c-0.125,0-0.232-0.007-0.32-0.02c-0.089-0.013-0.159-0.028-0.211-0.047
		c-0.053-0.019-0.089-0.043-0.109-0.074c-0.021-0.031-0.031-0.067-0.031-0.109v-9.703c0-0.042,0.012-0.078,0.035-0.109
		s0.062-0.056,0.117-0.074s0.125-0.034,0.211-0.047s0.188-0.02,0.309-0.02c0.13,0,0.238,0.007,0.324,0.02s0.155,0.028,0.207,0.047
		s0.089,0.043,0.109,0.074s0.031,0.067,0.031,0.109V62.928z"/>
	<path fill="#FFFFFF" d="M174.306,57.928c0,0.875-0.112,1.64-0.336,2.293s-0.551,1.195-0.98,1.625s-0.957,0.751-1.582,0.965
		s-1.37,0.32-2.234,0.32h-2.141c-0.12,0-0.233-0.04-0.34-0.121s-0.16-0.223-0.16-0.426v-9.016c0-0.203,0.054-0.345,0.16-0.426
		s0.22-0.121,0.34-0.121h2.289c0.875,0,1.614,0.113,2.219,0.34s1.11,0.552,1.52,0.977s0.719,0.938,0.93,1.543
		S174.306,57.167,174.306,57.928z M172.892,57.982c0-0.547-0.067-1.056-0.203-1.527s-0.348-0.879-0.637-1.223
		s-0.655-0.612-1.098-0.805s-1.013-0.289-1.711-0.289h-1.367v7.867h1.383c0.646,0,1.19-0.081,1.633-0.242s0.812-0.409,1.109-0.742
		s0.52-0.751,0.668-1.254S172.892,58.67,172.892,57.982z"/>
	<path fill="#FFFFFF" d="M183.712,62.654c0.042,0.114,0.063,0.207,0.066,0.277s-0.017,0.124-0.059,0.16s-0.11,0.06-0.207,0.07
		s-0.226,0.016-0.387,0.016s-0.29-0.004-0.387-0.012s-0.169-0.021-0.219-0.039s-0.086-0.043-0.109-0.074s-0.046-0.07-0.066-0.117
		l-0.867-2.461h-4.203l-0.828,2.43c-0.016,0.047-0.036,0.087-0.062,0.121s-0.063,0.062-0.113,0.086s-0.12,0.04-0.211,0.051
		s-0.21,0.016-0.355,0.016c-0.151,0-0.274-0.007-0.371-0.02s-0.164-0.038-0.203-0.074s-0.058-0.09-0.055-0.16
		s0.024-0.163,0.066-0.277l3.391-9.391c0.021-0.058,0.048-0.104,0.082-0.141s0.083-0.065,0.148-0.086s0.148-0.035,0.25-0.043
		s0.23-0.012,0.387-0.012c0.167,0,0.305,0.004,0.414,0.012s0.198,0.022,0.266,0.043s0.12,0.051,0.156,0.09s0.065,0.087,0.086,0.145
		L183.712,62.654z M179.36,54.365h-0.008l-1.742,5.039h3.516L179.36,54.365z"/>
	<path fill="#FFFFFF" d="M187.446,59.201v3.727c0,0.042-0.011,0.078-0.031,0.109s-0.057,0.056-0.108,0.074s-0.122,0.034-0.21,0.047
		s-0.194,0.02-0.318,0.02c-0.13,0-0.237-0.007-0.322-0.02c-0.086-0.013-0.155-0.028-0.21-0.047s-0.092-0.043-0.112-0.074
		c-0.021-0.031-0.031-0.067-0.031-0.109v-3.727l-2.859-5.703c-0.058-0.12-0.093-0.214-0.105-0.281s0-0.12,0.039-0.156
		s0.109-0.06,0.211-0.07s0.238-0.016,0.41-0.016c0.156,0,0.282,0.005,0.379,0.016s0.173,0.024,0.23,0.043s0.101,0.044,0.129,0.078
		s0.056,0.077,0.082,0.129l1.398,2.906c0.13,0.276,0.26,0.565,0.389,0.867c0.13,0.302,0.262,0.606,0.396,0.914h0.016
		c0.119-0.297,0.242-0.593,0.369-0.887c0.126-0.294,0.255-0.585,0.385-0.871l1.406-2.922c0.016-0.052,0.038-0.097,0.066-0.133
		s0.067-0.063,0.117-0.082s0.118-0.032,0.207-0.043s0.2-0.016,0.336-0.016c0.188,0,0.335,0.007,0.441,0.02s0.181,0.038,0.223,0.074
		s0.056,0.089,0.043,0.156s-0.048,0.159-0.105,0.273L187.446,59.201z"/>
</g>
<line fill="none" stroke="#FFFFFF" stroke-width="2" x1="133.548" y1="59.544" x2="83.096" y2="59.086"/>
<line fill="none" stroke="#FFFFFF" stroke-width="2" x1="240.04" y1="58.953" x2="191.333" y2="58.953"/>
</svg>
